<?xml version="1.0" standalone="no"?>
<!DOCTYPE svg PUBLIC "-//W3C//DTD SVG 20010904//EN"
 "http://www.w3.org/TR/2001/REC-SVG-20010904/DTD/svg10.dtd">
<svg version="1.0" xmlns="http://www.w3.org/2000/svg"
 width="384.000000pt" height="384.000000pt" viewBox="0 0 384.000000 384.000000"
 preserveAspectRatio="xMidYMid meet">
<metadata>
Created by potrace 1.11, written by Peter Selinger 2001-2013
</metadata>
<g transform="translate(0.000000,384.000000) scale(0.100000,-0.100000)"
fill="#000000" stroke="none">
<path d="M1671 3824 c-205 -28 -387 -83 -586 -178 -394 -189 -704 -500 -894
-897 -54 -112 -124 -302 -136 -369 -3 -14 -7 -36 -10 -50 -4 -14 -8 -38 -11
-55 -2 -16 -7 -41 -10 -54 -25 -115 -25 -538 1 -613 2 -7 6 -26 9 -43 12 -83
71 -293 87 -309 5 -6 9 -17 9 -26 0 -27 124 -270 187 -365 301 -456 789 -767
1328 -845 121 -18 403 -20 524 -4 287 39 560 140 801 298 338 222 594 539 744
923 35 91 82 255 92 323 3 19 7 41 9 47 18 54 27 446 13 538 -23 140 -31 182
-58 283 -16 62 -36 127 -44 145 -7 18 -19 48 -26 67 -25 67 -123 252 -180 338
-297 453 -788 764 -1325 842 -121 18 -403 20 -524 4z m-250 -1220 c168 -116
184 -472 28 -625 -44 -43 -80 -58 -140 -55 -177 7 -286 309 -194 539 29 71 87
140 138 163 46 21 120 11 168 -22z m1200 0 c107 -74 164 -271 125 -437 -20
-86 -46 -136 -96 -186 -153 -151 -356 1 -366 274 -6 177 61 322 171 372 44 20
119 10 166 -23z m-291 -1057 c90 -8 206 -18 235 -22 17 -2 57 -7 90 -11 33 -3
69 -8 80 -10 11 -3 42 -7 70 -10 111 -11 223 -91 275 -198 111 -224 -32 -480
-285 -511 -52 -6 -125 -17 -149 -21 -10 -2 -53 -6 -94 -10 -42 -3 -84 -7 -94
-9 -133 -26 -872 -26 -1080 0 -18 2 -60 6 -93 10 -199 18 -313 39 -367 66
-212 108 -260 387 -98 563 50 55 145 103 215 111 28 3 64 7 80 10 65 10 110
15 179 21 39 3 82 7 96 10 14 2 79 7 145 10 66 4 122 8 123 10 5 3 614 -5 672
-9z"/>
<path d="M1618 1435 c-2 -1 -61 -6 -133 -9 -135 -7 -209 -12 -285 -20 -25 -3
-76 -8 -115 -12 -70 -7 -104 -17 -117 -38 -4 -6 -8 -50 -8 -98 l0 -88 960 0
960 0 0 88 c0 48 -4 92 -8 98 -14 21 -47 32 -122 39 -41 4 -88 9 -105 10 -16
2 -68 6 -115 10 -47 3 -105 8 -130 11 -50 5 -776 14 -782 9z"/>
<path d="M960 991 c0 -89 24 -107 175 -127 28 -3 52 -8 56 -9 17 -11 314 -18
744 -17 565 0 665 5 827 37 108 22 118 31 118 112 l0 63 -960 0 -960 0 0 -59z"/>
</g>
</svg>
